<?xml version="1.0" standalone="no"?>
<!DOCTYPE svg PUBLIC "-//W3C//DTD SVG 20010904//EN"
 "http://www.w3.org/TR/2001/REC-SVG-20010904/DTD/svg10.dtd">
<svg version="1.0" xmlns="http://www.w3.org/2000/svg"
 width="840.000000pt" height="525.000000pt" viewBox="0 0 840.000000 525.000000"
 preserveAspectRatio="xMidYMid meet">

<g transform="translate(0.000000,525.000000) scale(0.100000,-0.100000)"
fill="#000000" stroke="none">
<path d="M3965 5015 c-51 -56 -87 -70 -99 -39 -10 26 5 39 21 18 14 -19 15
-19 11 1 -4 24 -27 26 -41 3 -15 -23 8 -48 44 -48 23 0 36 10 64 49 46 63 89
77 125 41 27 -27 25 -56 -5 -76 -20 -13 -28 -14 -40 -4 -20 16 -19 40 1 40 10
0 14 -6 10 -15 -3 -8 -1 -15 4 -15 13 0 13 37 1 44 -17 11 -41 -6 -41 -30 0
-22 25 -44 49 -44 6 0 20 9 30 19 19 19 20 19 37 0 9 -10 29 -19 44 -19 15 0
35 9 44 19 17 19 18 19 37 0 22 -22 32 -23 60 -9 35 19 19 76 -18 63 -15 -5
-18 -43 -3 -43 5 0 7 7 4 15 -4 9 0 15 10 15 20 0 21 -24 1 -40 -12 -10 -20
-9 -40 4 -30 20 -32 49 -5 76 36 36 79 22 125 -41 28 -39 41 -49 64 -49 36 0
59 25 44 48 -14 23 -37 21 -41 -3 -4 -20 -3 -20 11 -1 16 21 31 8 21 -18 -12
-31 -48 -17 -99 39 -57 61 -96 72 -130 35 l-18 -20 -22 20 c-27 25 -55 25 -87
0 -25 -19 -26 -19 -43 0 -33 37 -73 26 -130 -35z m246 35 c30 -17 26 -77 -6
-92 -38 -17 -75 3 -75 41 0 50 38 74 81 51z"/>
<path d="M2560 4716 c0 -7 7 -19 15 -26 11 -9 15 -33 15 -89 0 -80 7 -121 20
-121 16 0 30 64 30 132 0 60 -3 72 -25 93 -26 27 -55 33 -55 11z"/>
<path d="M3380 4717 c0 -7 7 -22 15 -33 11 -14 14 -49 15 -136 0 -116 5 -148
21 -148 16 0 29 76 29 172 0 113 -3 124 -41 143 -34 18 -39 19 -39 2z"/>
<path d="M6310 4717 c0 -8 9 -22 20 -32 17 -15 20 -33 22 -146 2 -77 7 -129
13 -130 6 -1 17 20 25 45 13 39 19 46 41 46 14 0 30 5 35 10 8 8 15 6 24 -5
14 -17 81 -20 110 -5 28 15 44 73 29 102 -16 32 -28 38 -71 38 -51 0 -91 -35
-90 -80 1 -24 -2 -30 -11 -21 -6 6 -21 11 -34 11 -22 0 -23 4 -23 69 0 68 -1
70 -34 90 -39 24 -56 27 -56 8z m280 -128 c21 -38 -37 -78 -68 -47 -17 17 -15
45 6 57 27 16 50 13 62 -10z"/>
<path d="M6650 4718 c0 -7 7 -22 15 -32 10 -13 15 -44 15 -92 0 -80 8 -134 21
-134 14 0 29 73 29 148 0 66 -2 75 -26 97 -29 27 -54 33 -54 13z"/>
<path d="M1845 4700 c-3 -4 6 -22 20 -38 22 -27 25 -39 25 -111 l0 -81 -32 0
c-18 0 -49 -3 -69 -6 l-36 -6 -7 49 c-5 44 -10 51 -41 66 -39 19 -54 8 -25
-18 15 -14 20 -31 20 -70 0 -31 5 -57 13 -64 18 -14 120 2 154 25 l25 16 -3
-94 c-3 -55 0 -95 6 -98 12 -6 32 56 40 123 6 44 8 47 35 47 30 0 45 21 27 39
-6 6 -21 11 -34 11 -22 0 -23 3 -23 83 0 67 -3 87 -18 100 -24 21 -70 38 -77
27z"/>
<path d="M2290 4699 c-14 -4 -46 -7 -72 -8 -27 -1 -48 -5 -48 -9 0 -17 25 -32
53 -32 36 0 29 -11 -35 -52 -49 -32 -50 -33 -24 -36 17 -2 42 6 65 21 36 24
37 24 60 6 27 -22 81 -26 81 -6 0 20 -21 37 -46 37 -32 0 -37 14 -14 35 35 32
24 57 -20 44z"/>
<path d="M4160 4690 c0 -10 16 -32 35 -47 l35 -28 0 -165 c0 -173 7 -211 31
-169 10 18 14 69 14 194 l0 170 -49 32 c-56 38 -66 40 -66 13z"/>
<path d="M5360 4690 c0 -10 10 -26 21 -34 21 -14 22 -20 17 -201 -3 -102 -1
-188 4 -191 13 -8 35 53 43 119 6 55 8 57 36 57 16 0 29 5 29 10 0 7 6 7 19 0
11 -5 40 -10 64 -10 25 0 49 -6 56 -14 6 -7 14 -54 18 -105 3 -50 10 -91 14
-91 31 0 51 127 29 184 -9 25 -8 26 30 26 21 0 51 5 66 10 25 10 26 12 11 27
-14 15 -31 15 -159 5 -89 -7 -147 -7 -152 -1 -6 5 -20 9 -33 9 -22 0 -23 3
-23 83 0 91 -7 105 -63 126 -24 9 -27 8 -27 -9z"/>
<path d="M6020 4702 c0 -4 6 -16 14 -27 7 -12 15 -61 19 -118 3 -55 8 -102 11
-105 17 -17 30 27 34 114 4 88 3 97 -19 120 -21 23 -59 33 -59 16z"/>
<path d="M2910 4695 c0 -3 5 -14 12 -25 16 -26 -11 -63 -81 -110 -36 -24 -47
-36 -36 -38 26 -6 58 5 97 32 36 24 37 24 53 6 24 -26 84 -45 97 -32 18 18 0
41 -41 52 -45 12 -48 17 -26 46 21 28 19 38 -14 57 -28 16 -61 23 -61 12z"/>
<path d="M4955 4688 c-77 -42 -48 -148 40 -148 44 0 95 45 95 83 0 42 -36 77
-78 77 -20 0 -46 -6 -57 -12z m84 -42 c16 -19 0 -52 -29 -61 -42 -13 -78 33
-48 63 17 17 63 15 77 -2z"/>
<path d="M5650 4687 c0 -7 5 -18 12 -25 9 -9 3 -21 -27 -53 -22 -22 -56 -50
-75 -62 -33 -20 -33 -22 -12 -25 12 -2 47 10 77 27 30 17 55 26 55 21 0 -14
87 -53 100 -45 6 3 10 14 10 24 0 13 -13 22 -45 31 -48 14 -54 20 -30 40 22
19 18 46 -10 64 -29 19 -55 21 -55 3z"/>
<path d="M6890 4692 c0 -5 14 -21 30 -37 28 -27 30 -34 30 -101 l0 -72 -60 -4
-60 -3 0 31 c0 34 -38 84 -65 84 -19 0 -19 -9 1 -32 11 -12 17 -36 17 -73 l0
-55 83 0 84 0 0 -75 c0 -75 10 -93 30 -54 13 23 26 293 16 332 -9 37 -106 91
-106 59z"/>
<path d="M7190 4692 c0 -5 9 -17 20 -27 17 -15 20 -31 20 -105 0 -100 0 -100
-86 -100 l-54 0 0 45 0 45 39 0 c34 0 51 12 51 36 0 2 -31 4 -70 4 l-70 0 0
-59 c0 -33 -3 -66 -6 -74 -3 -8 3 -22 12 -32 15 -14 28 -16 83 -10 36 3 74 9
84 12 17 5 19 -1 16 -76 -2 -44 0 -83 3 -86 14 -15 41 49 46 110 5 64 5 65 34
65 17 0 31 6 35 16 7 19 -13 34 -44 34 -22 0 -23 3 -23 90 0 89 0 90 -30 105
-32 17 -60 20 -60 7z"/>
<path d="M4340 4681 c0 -5 7 -14 15 -21 9 -7 15 -29 15 -53 0 -60 19 -76 78
-66 26 5 64 11 85 14 38 6 39 7 21 27 -15 16 -27 19 -59 14 -23 -3 -49 -8 -58
-12 -14 -5 -17 0 -17 25 0 21 -9 41 -25 56 -24 25 -55 33 -55 16z"/>
<path d="M5220 4682 c0 -16 36 -42 58 -42 33 0 26 27 -9 39 -38 13 -49 14 -49
3z"/>
<path d="M1485 4663 c-32 -8 -62 -16 -64 -19 -14 -13 30 -23 77 -18 l52 6 0
-55 c0 -63 11 -78 34 -45 19 27 21 119 4 136 -14 14 -26 14 -103 -5z"/>
<path d="M3520 4661 c0 -5 7 -14 15 -21 8 -7 15 -27 15 -44 0 -58 18 -70 94
-62 132 13 160 53 33 48 l-77 -4 0 31 c0 20 -8 35 -22 45 -24 17 -58 21 -58 7z"/>
<path d="M1070 4649 c0 -6 7 -17 15 -25 9 -9 15 -34 15 -58 0 -59 16 -70 89
-63 74 8 111 22 111 43 0 15 -9 16 -75 10 l-75 -7 0 31 c0 19 -9 40 -25 55
-25 26 -55 33 -55 14z"/>
<path d="M2453 4653 c-29 -2 -53 -7 -53 -12 0 -17 26 -31 57 -31 42 0 41 -10
-1 -54 -33 -35 -56 -46 -56 -26 0 11 -100 13 -213 4 -65 -6 -75 -9 -65 -21 9
-11 40 -14 140 -12 71 0 132 -2 135 -5 14 -14 53 -5 81 18 36 31 77 108 69
129 -4 10 -14 16 -24 15 -10 -1 -42 -3 -70 -5z"/>
<path d="M5935 4627 c6 -32 3 -38 -51 -85 -51 -46 -55 -52 -33 -52 13 0 37 9
53 19 29 19 30 19 54 0 24 -19 72 -26 72 -11 0 4 -14 19 -32 34 -29 24 -32 29
-20 47 17 28 15 45 -6 64 -30 28 -44 21 -37 -16z"/>
<path d="M6190 4629 c-71 -14 -74 -16 -56 -41 12 -16 14 -36 9 -80 -6 -57 -6
-58 20 -58 54 0 167 24 167 36 0 26 -27 35 -71 25 -65 -15 -67 -15 -71 29 -4
43 -4 42 60 55 34 7 43 29 16 39 -9 3 -19 6 -22 5 -4 -1 -27 -5 -52 -10z"/>
<path d="M5238 4623 c-74 -4 -93 -12 -66 -29 12 -8 189 -6 197 2 8 8 -22 34
-38 32 -9 -1 -51 -4 -93 -5z"/>
<path d="M4110 4614 c0 -3 9 -17 20 -31 11 -14 20 -36 20 -49 0 -19 -5 -24
-25 -24 -15 0 -25 -6 -25 -14 0 -16 26 -46 41 -46 5 0 9 -29 9 -64 0 -74 12
-90 35 -47 11 21 15 60 15 135 0 101 -1 105 -26 125 -25 20 -64 29 -64 15z"/>
<path d="M3259 4587 c-42 -28 -47 -52 -18 -83 28 -30 88 -33 112 -6 36 40 10
112 -40 112 -11 0 -35 -10 -54 -23z m65 -48 c-7 -13 -31 -11 -40 2 -9 16 18
30 33 17 7 -6 10 -14 7 -19z"/>
<path d="M5229 4565 c-32 -17 -41 -38 -33 -71 12 -48 85 -60 122 -21 27 29 28
61 2 87 -23 23 -54 25 -91 5z m66 -50 c0 -23 -43 -34 -55 -14 -14 21 1 40 29
37 18 -2 26 -9 26 -23z"/>
<path d="M4002 4553 c-28 -4 -31 -7 -21 -19 6 -8 24 -14 40 -14 27 0 29 -3 29
-39 0 -33 -4 -40 -22 -43 -36 -5 -28 -33 10 -36 49 -5 57 8 57 85 l0 68 -30 1
c-16 1 -45 -1 -63 -3z"/>
<path d="M3928 4508 c11 -18 23 -48 27 -66 9 -45 29 -35 33 17 4 50 -18 81
-55 81 l-25 0 20 -32z"/>
<path d="M4378 4503 c-102 -5 -106 -31 -8 -43 l45 -5 3 -72 c2 -40 7 -73 12
-73 18 0 30 39 30 94 0 41 4 56 14 56 21 0 26 -23 26 -110 0 -43 5 -82 10 -85
20 -13 42 66 38 137 l-4 67 31 3 c19 2 30 9 30 18 0 16 -69 20 -227 13z"/>
<path d="M1515 4493 c-16 -1 -58 -6 -93 -9 -53 -5 -61 -8 -51 -20 7 -8 30 -14
60 -14 67 0 79 -20 79 -127 0 -45 4 -84 10 -88 30 -18 55 148 30 196 -10 17
-7 19 33 19 51 0 91 24 67 40 -14 9 -72 11 -135 3z"/>
<path d="M3594 4490 c-82 -9 -114 -18 -114 -31 0 -13 307 -12 316 2 19 32 -68
44 -202 29z"/>
<path d="M4915 4495 c-5 -2 -27 -6 -47 -10 -24 -4 -38 -11 -38 -20 0 -13 25
-14 155 -12 85 2 158 6 161 10 4 3 4 13 1 22 -5 12 -26 15 -114 14 -59 0 -112
-2 -118 -4z"/>
<path d="M2872 4480 c-45 -4 -86 -10 -90 -14 -12 -13 22 -26 69 -26 63 0 73
-15 79 -118 5 -90 21 -116 40 -67 14 37 13 158 -2 173 -9 9 -1 12 38 12 53 0
92 19 80 38 -8 13 -80 14 -214 2z"/>
<path d="M2243 4473 c-29 -2 -53 -8 -53 -12 0 -21 30 -31 69 -25 36 6 41 4 35
-10 -4 -12 -19 -16 -53 -16 -56 0 -64 -6 -50 -32 8 -14 8 -23 0 -31 -6 -6 -11
-19 -11 -29 0 -16 9 -18 78 -18 77 0 122 13 130 38 3 10 -12 12 -72 6 -73 -6
-76 -6 -76 15 0 18 6 21 46 21 37 0 45 3 40 15 -3 9 0 24 6 35 9 14 9 22 -1
34 -8 9 -19 15 -25 14 -6 -1 -35 -3 -63 -5z"/>
<path d="M1120 4463 c-30 -2 -62 -6 -70 -9 -30 -11 22 -34 77 -34 64 0 69 -8
79 -113 4 -42 10 -77 14 -77 18 0 32 64 28 130 l-4 70 46 0 c50 0 76 12 66 29
-7 11 -102 12 -236 4z"/>
<path d="M2537 4463 c-48 -3 -58 -7 -55 -21 3 -14 13 -16 51 -14 42 3 47 1 47
-17 0 -18 -6 -21 -51 -21 -38 0 -48 -3 -42 -12 4 -7 8 -31 8 -53 l0 -40 65 3
c67 4 100 15 100 33 0 7 -20 9 -59 4 -54 -6 -59 -5 -64 14 -5 19 -1 21 40 21
36 0 44 3 42 18 -2 9 1 27 5 40 7 22 -8 55 -23 50 -3 -1 -32 -3 -64 -5z"/>
<path d="M6634 4441 c9 -17 21 -31 26 -31 6 0 10 -22 10 -49 0 -47 -2 -50 -30
-56 -32 -7 -37 -17 -17 -32 27 -21 60 1 78 52 10 28 18 59 18 71 1 26 -35 60
-72 70 l-29 7 16 -32z"/>
<path d="M5230 4430 c0 -6 7 -13 15 -16 28 -11 17 -34 -17 -34 -27 -1 -96 -27
-78 -30 42 -6 214 0 222 8 17 17 -1 32 -38 32 -27 0 -34 4 -34 19 0 11 -9 21
-22 25 -34 9 -48 7 -48 -4z"/>
<path d="M5980 4423 c-30 -8 -57 -17 -60 -19 -13 -13 30 -24 73 -18 l47 6 0
-71 c0 -39 4 -71 8 -71 15 0 32 48 39 107 5 48 3 58 -12 69 -22 16 -22 16 -95
-3z"/>
<path d="M3358 4424 c-3 -3 -1 -17 4 -32 8 -21 6 -36 -7 -67 -11 -27 -19 -35
-23 -25 -3 8 -11 19 -19 23 -10 6 -13 17 -9 33 8 29 -9 64 -30 64 -11 0 -13
-6 -9 -20 5 -14 -4 -35 -29 -70 -36 -50 -36 -50 -11 -50 13 0 28 8 34 17 9 16
11 16 28 1 30 -27 74 -34 89 -13 12 16 15 17 37 2 18 -11 27 -13 35 -5 14 14
-3 48 -24 48 -12 0 -14 7 -9 29 5 22 1 35 -14 50 -21 21 -33 25 -43 15z"/>
<path d="M3550 4412 c0 -5 9 -17 20 -27 13 -12 20 -31 20 -55 0 -52 18 -64 83
-56 29 3 68 11 85 17 34 12 44 38 15 40 -24 2 -21 2 -80 -6 -52 -7 -53 -7 -53
20 0 31 -41 75 -70 75 -11 0 -20 -4 -20 -8z"/>
<path d="M4910 4412 c0 -5 9 -17 20 -27 14 -13 20 -31 20 -61 0 -57 19 -68 99
-55 122 20 139 58 24 53 l-71 -3 -6 35 c-4 20 -17 42 -29 51 -23 16 -57 20
-57 7z"/>
<path d="M6540 4406 c0 -7 7 -19 15 -26 9 -7 15 -29 15 -51 0 -52 16 -57 41
-15 12 20 28 36 36 36 8 0 13 6 11 13 -3 6 -13 12 -23 12 -11 0 -29 10 -42 23
-25 25 -53 29 -53 8z"/>
<path d="M6265 4388 c-48 -26 -60 -83 -25 -118 48 -48 143 -8 143 60 0 58 -62
89 -118 58z m74 -42 c9 -11 10 -20 1 -36 -13 -25 -57 -24 -73 2 -23 36 45 67
72 34z"/>
<path d="M4632 4358 c-17 -17 -15 -48 3 -48 19 0 19 -5 -1 -36 -25 -37 -9 -41
26 -5 25 24 31 38 28 63 -3 36 -32 50 -56 26z"/>
<path d="M2021 3982 c-12 -23 4 -42 35 -42 35 0 54 11 54 30 0 33 -73 43 -89
12z m69 -12 c0 -15 -7 -20 -24 -20 -27 0 -41 14 -31 30 3 6 17 10 31 10 17 0
24 -5 24 -20z"/>
<path d="M2243 3930 c0 -41 2 -58 4 -38 3 24 10 38 21 41 16 4 16 5 0 6 -11 1
-18 12 -21 34 -2 17 -4 -2 -4 -43z"/>
<path d="M2316 3969 c-30 -30 -24 -39 9 -15 17 12 22 12 39 0 11 -8 27 -14 36
-14 8 0 0 9 -18 20 -18 11 -30 25 -27 30 12 19 -10 7 -39 -21z"/>
<path d="M2461 3988 c0 -10 -10 -27 -22 -39 -11 -11 -18 -23 -16 -26 3 -2 14
4 25 15 18 18 22 19 33 6 6 -8 17 -14 23 -14 6 0 1 8 -11 18 -11 9 -23 26 -26
37 -4 16 -5 17 -6 3z"/>
<path d="M2533 3960 c0 -25 2 -35 4 -22 2 12 2 32 0 45 -2 12 -4 2 -4 -23z"/>
<path d="M2570 3970 c0 -29 2 -30 43 -28 l42 1 -37 4 c-29 3 -38 9 -38 23 0
13 9 20 28 23 25 4 25 4 -5 6 -30 1 -33 -2 -33 -29z"/>
<path d="M2661 3963 c-1 -40 -3 -43 -30 -43 -37 0 -59 -24 -41 -45 7 -8 25
-15 40 -15 32 0 59 25 43 41 -14 14 -4 57 16 62 15 4 14 5 -1 6 -9 0 -19 9
-21 19 -3 9 -5 -2 -6 -25z m-6 -73 c0 -9 -11 -16 -27 -18 -27 -3 -38 14 -21
32 12 12 48 2 48 -14z"/>
<path d="M2780 3973 l0 -28 -19 24 c-29 37 -53 22 -49 -31 4 -53 29 -63 52
-21 l15 28 1 -42 c0 -24 5 -43 10 -43 6 0 10 30 10 70 0 40 -4 70 -10 70 -5 0
-10 -12 -10 -27z m-30 -34 c0 -28 -4 -39 -12 -37 -24 8 -22 78 2 78 5 0 10
-18 10 -41z"/>
<path d="M2810 3930 c0 -40 4 -70 10 -70 6 0 10 30 10 70 0 40 -4 70 -10 70
-6 0 -10 -30 -10 -70z"/>
<path d="M3133 3930 c0 -41 2 -58 4 -37 2 20 2 54 0 75 -2 20 -4 3 -4 -38z"/>
<path d="M3180 3975 c0 -24 3 -25 53 -23 50 1 50 2 10 5 -35 3 -43 8 -43 24 0
10 -4 19 -10 19 -5 0 -10 -11 -10 -25z"/>
<path d="M3468 3993 c32 -6 26 -29 -13 -51 -17 -9 -17 -11 -3 -12 16 0 58 44
58 61 0 5 -15 8 -32 8 -24 -1 -27 -3 -10 -6z"/>
<path d="M3520 3960 c0 -43 16 -55 23 -17 l4 22 2 -22 c2 -40 21 -25 21 17 0
40 -15 55 -23 23 -4 -17 -5 -17 -6 0 -2 35 -21 15 -21 -23z"/>
<path d="M3653 3993 c9 -2 23 -2 30 0 6 3 -1 5 -18 5 -16 0 -22 -2 -12 -5z"/>
<path d="M3723 3945 c0 -33 2 -48 4 -33 2 15 12 29 21 31 16 4 16 5 0 6 -10 1
-18 12 -21 29 -2 15 -4 0 -4 -33z"/>
<path d="M3781 3973 c-1 -32 0 -33 44 -33 44 0 45 1 44 33 0 17 -3 26 -6 20
-2 -7 -20 -13 -38 -13 -18 0 -36 6 -38 13 -3 6 -6 -3 -6 -20z m79 -13 c0 -5
-16 -10 -35 -10 -19 0 -35 5 -35 10 0 6 16 10 35 10 19 0 35 -4 35 -10z"/>
<path d="M3963 3993 c9 -2 23 -2 30 0 6 3 -1 5 -18 5 -16 0 -22 -2 -12 -5z"/>
<path d="M4030 3945 c0 -30 5 -55 10 -55 6 0 10 11 10 24 0 13 6 27 13 29 10
4 10 6 0 6 -7 1 -13 12 -13 26 0 14 -4 25 -10 25 -5 0 -10 -25 -10 -55z"/>
<path d="M4101 3973 c-1 -32 0 -33 44 -33 43 0 45 1 45 30 0 17 -4 30 -10 30
-5 0 -10 -4 -10 -10 0 -15 -57 -12 -63 3 -3 6 -6 -3 -6 -20z m69 -13 c0 -5
-13 -10 -30 -10 -16 0 -30 5 -30 10 0 6 14 10 30 10 17 0 30 -4 30 -10z"/>
<path d="M4330 3950 l0 -49 -57 -4 -58 -3 57 -2 c44 -2 58 -6 61 -19 3 -10 5
15 6 55 0 39 -1 72 -4 72 -3 0 -5 -22 -5 -50z"/>
<path d="M4400 3965 c0 -32 2 -35 30 -35 28 0 30 3 30 35 0 32 -2 35 -30 35
-28 0 -30 -3 -30 -35z m50 0 c0 -18 -5 -25 -20 -25 -15 0 -20 7 -20 25 0 18 5
25 20 25 15 0 20 -7 20 -25z"/>
<path d="M4493 3950 c0 -30 2 -43 4 -28 2 15 12 29 21 31 16 4 16 5 0 6 -9 0
-19 11 -21 24 -2 12 -4 -3 -4 -33z"/>
<path d="M4580 3991 c38 -7 31 -17 -18 -30 -19 -5 -7 -7 35 -7 41 1 55 3 42 8
-18 7 -19 11 -9 23 11 13 6 15 -36 14 -46 -2 -46 -2 -14 -8z"/>
<path d="M4703 3993 c15 -2 27 -11 27 -18 0 -33 -112 -62 -123 -32 -4 9 -8 9
-14 0 -4 -6 -22 -13 -38 -16 -17 -2 7 -5 52 -6 74 -1 84 1 112 25 43 36 41 54
-6 53 -31 -2 -33 -3 -10 -6z"/>
<path d="M4770 3960 c0 -22 5 -40 10 -40 6 0 10 9 10 19 0 11 6 22 13 24 10 4
10 6 0 6 -7 1 -13 8 -13 16 0 8 -4 15 -10 15 -5 0 -10 -18 -10 -40z"/>
<path d="M4842 3988 c-8 -8 -9 -15 -1 -25 20 -23 89 -14 89 12 0 25 -66 35
-88 13z m69 -13 c0 -5 -7 -12 -16 -13 -23 -5 -47 6 -40 19 8 13 56 8 56 -6z"/>
<path d="M5010 3980 c0 -13 7 -20 20 -20 33 0 23 -18 -12 -23 -18 -2 -1 -5 39
-5 61 -2 74 -5 83 -22 11 -21 44 -27 55 -10 13 21 44 10 48 -17 2 -16 4 6 4
47 1 41 -1 67 -4 58 -5 -19 -38 -24 -48 -8 -12 19 -45 10 -57 -15 -9 -19 -19
-25 -45 -25 -40 0 -44 17 -5 23 19 3 14 4 -15 6 -31 1 -43 5 -43 16 0 8 -4 15
-10 15 -5 0 -10 -9 -10 -20z m175 -41 c0 -24 -5 -34 -15 -34 -16 0 -25 37 -16
62 10 26 31 8 31 -28z m55 1 c0 -11 -7 -20 -15 -20 -8 0 -15 9 -15 20 0 11 7
20 15 20 8 0 15 -9 15 -20z"/>
<path d="M5563 3930 c0 -41 2 -58 4 -37 2 20 2 54 0 75 -2 20 -4 3 -4 -38z"/>
<path d="M5780 3985 c-18 -22 -1 -50 31 -50 20 0 24 5 24 30 0 23 -5 31 -21
33 -11 2 -27 -4 -34 -13z m48 -18 c4 -20 -25 -34 -40 -19 -15 15 -1 44 19 40
10 -2 19 -11 21 -21z"/>
<path d="M5873 3960 c0 -25 2 -35 4 -22 2 12 2 32 0 45 -2 12 -4 2 -4 -23z"/>
<path d="M5963 3986 c-4 -8 -19 -19 -33 -25 -22 -9 -22 -10 -4 -10 11 -1 25 4
31 10 8 8 17 8 31 0 11 -6 27 -11 34 -11 7 0 4 6 -7 12 -11 6 -25 17 -32 25
-10 13 -12 12 -20 -1z"/>
<path d="M6150 3930 c0 -40 4 -70 10 -70 6 0 10 30 10 70 0 40 -4 70 -10 70
-6 0 -10 -30 -10 -70z"/>
<path d="M6293 3930 c0 -41 2 -56 4 -33 3 29 9 43 21 46 16 4 16 5 0 6 -10 1
-18 12 -21 29 -2 15 -4 -7 -4 -48z"/>
<path d="M2173 3983 c9 -2 23 -2 30 0 6 3 -1 5 -18 5 -16 0 -22 -2 -12 -5z"/>
<path d="M2913 3983 c-21 -8 -15 -51 7 -58 32 -10 24 -33 -12 -38 -18 -2 -3
-5 34 -5 58 -2 70 1 96 23 26 22 31 23 42 10 7 -8 17 -15 23 -15 6 0 1 10 -11
23 -12 13 -22 34 -23 48 -1 22 -1 22 -11 -6 -16 -45 -48 -75 -80 -75 -33 0
-39 25 -8 35 24 8 27 50 4 59 -18 7 -43 7 -61 -1z m62 -28 c0 -13 -8 -21 -24
-23 -28 -4 -46 11 -37 33 9 25 61 16 61 -10z"/>
<path d="M3359 3983 c43 -4 43 -4 38 -39 -3 -19 -2 -34 4 -34 5 0 9 18 9 40
l0 40 -47 -2 -48 -1 44 -4z"/>
<path d="M4237 3983 c-11 -10 -8 -51 4 -58 5 -4 21 -4 35 -1 17 5 24 13 24 30
0 29 -43 49 -63 29z m51 -26 c4 -20 -25 -34 -40 -19 -15 15 -1 44 19 40 10 -2
19 -11 21 -21z"/>
<path d="M5330 3955 l0 -35 48 2 47 1 -42 4 c-38 4 -43 7 -43 28 0 21 5 24 43
28 l42 4 -47 1 -48 2 0 -35z"/>
<path d="M5483 3983 c34 -5 36 -33 2 -33 -21 0 -25 -5 -25 -30 0 -29 2 -30 43
-28 l42 1 -37 4 c-30 3 -38 9 -38 24 0 14 7 19 25 19 20 0 25 5 25 25 0 22 -4
25 -32 24 -31 -2 -31 -2 -5 -6z"/>
<path d="M5649 3983 l43 -4 -5 -35 c-4 -20 -2 -32 4 -29 5 4 9 22 9 41 l0 34
-47 -2 -48 -1 44 -4z"/>
<path d="M6050 3945 l0 -45 48 2 c43 1 44 2 10 5 -37 4 -38 5 -38 44 0 21 -4
39 -10 39 -5 0 -10 -20 -10 -45z"/>
<path d="M6200 3945 l0 -45 40 0 c22 0 40 4 40 8 0 4 -16 6 -35 4 -34 -4 -35
-3 -35 31 0 31 3 36 28 40 25 4 25 4 -5 6 -33 1 -33 0 -33 -44z"/>
<path d="M3638 3973 c12 -2 32 -2 45 0 12 2 2 4 -23 4 -25 0 -35 -2 -22 -4z"/>
<path d="M3953 3973 c15 -2 37 -2 50 0 12 2 0 4 -28 4 -27 0 -38 -2 -22 -4z"/>
<path d="M2163 3963 c15 -2 37 -2 50 0 12 2 0 4 -28 4 -27 0 -38 -2 -22 -4z"/>
<path d="M3632 3948 c-15 -15 2 -38 28 -38 26 0 43 23 28 38 -7 7 -19 12 -28
12 -9 0 -21 -5 -28 -12z m48 -13 c0 -8 -9 -15 -20 -15 -11 0 -20 7 -20 15 0 8
9 15 20 15 11 0 20 -7 20 -15z"/>
<path d="M3944 3945 c-9 -22 9 -37 37 -33 16 2 24 10 24 23 0 26 -52 35 -61
10z m51 -4 c3 -5 1 -13 -5 -16 -15 -9 -43 3 -35 15 8 13 32 13 40 1z"/>
<path d="M2154 3938 c-4 -6 0 -16 9 -23 23 -16 21 -23 -5 -28 -13 -2 0 -4 27
-4 28 0 40 2 28 4 -27 5 -29 12 -6 28 21 15 9 35 -22 35 -13 0 -27 -5 -31 -12z
m46 -8 c0 -5 -7 -10 -15 -10 -8 0 -15 5 -15 10 0 6 7 10 15 10 8 0 15 -4 15
-10z"/>
<path d="M3350 3916 c0 -19 -6 -26 -27 -29 -16 -2 6 -4 47 -4 41 0 58 2 38 4
-33 4 -38 8 -38 29 0 13 -4 24 -10 24 -5 0 -10 -11 -10 -24z"/>
<path d="M4843 3933 c20 -2 54 -2 75 0 20 2 3 4 -38 4 -41 0 -58 -2 -37 -4z"/>
<path d="M5641 3918 c-1 -21 -7 -28 -28 -31 -16 -2 4 -4 42 -4 39 0 53 2 33 4
-31 4 -37 8 -41 31 l-4 27 -2 -27z"/>
<path d="M5933 3933 c20 -2 54 -2 75 0 20 2 3 4 -38 4 -41 0 -58 -2 -37 -4z"/>
<path d="M3193 3923 c20 -2 54 -2 75 0 20 2 3 4 -38 4 -41 0 -58 -2 -37 -4z"/>
<path d="M3788 3923 c19 -3 32 -10 32 -19 0 -8 5 -14 10 -14 6 0 10 6 10 14 0
9 13 16 33 19 17 2 -2 4 -43 4 -41 0 -60 -2 -42 -4z"/>
<path d="M4102 3923 c24 -3 38 -10 41 -21 4 -16 5 -16 6 0 1 11 12 18 34 21
17 2 -2 4 -43 4 -41 0 -58 -2 -38 -4z"/>
<path d="M2023 3913 c20 -2 54 -2 75 0 20 2 3 4 -38 4 -41 0 -58 -2 -37 -4z"/>
<path d="M2307 3913 c26 -3 33 -9 36 -31 l4 -27 2 27 c1 22 6 27 34 31 17 2 1
4 -38 4 -38 0 -56 -2 -38 -4z"/>
<path d="M4880 3910 l45 -7 -42 -1 c-36 -2 -43 -5 -43 -22 0 -17 6 -20 48 -18
l47 1 -42 4 c-54 5 -56 23 -3 23 29 0 40 4 40 15 0 11 -11 15 -47 13 l-48 -1
45 -7z"/>
<path d="M5931 3893 c-1 -32 0 -33 44 -33 44 0 45 1 44 33 0 17 -3 26 -6 20
-2 -7 -20 -13 -38 -13 -18 0 -36 6 -38 13 -3 6 -6 -3 -6 -20z m79 -13 c0 -5
-16 -10 -35 -10 -19 0 -35 5 -35 10 0 6 16 10 35 10 19 0 35 -4 35 -10z"/>
<path d="M2487 3903 c33 -3 43 -8 46 -26 4 -18 5 -17 6 6 1 26 -1 27 -46 25
l-48 -1 42 -4z"/>
<path d="M3508 3903 c34 -3 42 -8 42 -24 0 -10 5 -19 10 -19 6 0 10 11 10 25
0 24 -3 25 -52 23 -51 -1 -51 -2 -10 -5z"/>
<path d="M4421 3888 c-1 -27 1 -28 47 -26 l47 1 -42 4 c-33 3 -43 8 -46 26 -4
18 -5 17 -6 -5z"/>
<path d="M4700 3885 c0 -23 4 -25 45 -25 41 0 45 2 45 25 0 23 -4 25 -45 25
-41 0 -45 -2 -45 -25z m70 0 c0 -10 -10 -15 -30 -15 -20 0 -30 5 -30 15 0 10
10 15 30 15 20 0 30 -5 30 -15z"/>
<path d="M5017 3894 c3 -9 0 -20 -8 -25 -9 -6 8 -8 46 -8 33 0 54 3 48 6 -7 2
-13 11 -13 18 0 7 6 16 13 18 6 3 -11 6 -40 6 -44 1 -51 -2 -46 -15z m63 -9
c0 -8 -9 -15 -20 -15 -11 0 -20 7 -20 15 0 8 9 15 20 15 11 0 20 -7 20 -15z"/>
<path d="M5797 3884 c-10 -13 -13 -24 -8 -24 5 0 13 5 16 10 5 8 11 7 21 -1
11 -9 18 -9 26 -1 9 9 15 9 25 0 21 -17 23 -5 3 20 l-19 23 -12 -22 -11 -22
-12 20 c-11 21 -11 21 -29 -3z"/>
<path d="M2021 3883 c-1 -21 3 -23 47 -21 l47 1 -42 4 c-29 3 -43 9 -46 21 -3
12 -5 11 -6 -5z"/>
<path d="M3181 3883 c-1 -21 3 -23 52 -21 l52 2 -47 3 c-33 3 -48 9 -51 21 -3
12 -5 11 -6 -5z"/>
<path d="M3781 3883 c-1 -21 3 -23 52 -21 l52 2 -47 3 c-33 3 -48 9 -51 21 -3
12 -5 11 -6 -5z"/>
<path d="M4101 3883 c-1 -21 3 -23 47 -21 l47 1 -42 4 c-29 3 -43 9 -46 21 -3
12 -5 11 -6 -5z"/>
<path d="M4588 3893 c28 -3 42 -9 42 -19 0 -8 5 -14 10 -14 6 0 10 9 10 20 0
18 -6 20 -52 18 -51 -1 -51 -2 -10 -5z"/>
<path d="M3640 3875 c0 -12 12 -15 53 -13 50 1 50 2 10 5 -24 2 -43 8 -43 14
0 5 -4 9 -10 9 -5 0 -10 -7 -10 -15z"/>
<path d="M3960 3878 c0 -15 8 -18 48 -16 47 1 47 1 7 5 -22 3 -43 10 -47 16
-5 8 -8 6 -8 -5z"/>
<path d="M5333 3883 c20 -2 54 -2 75 0 20 2 3 4 -38 4 -41 0 -58 -2 -37 -4z"/>
<path d="M6335 3880 c-3 -5 1 -10 10 -10 9 0 13 5 10 10 -3 6 -8 10 -10 10 -2
0 -7 -4 -10 -10z"/>
<path d="M2070 1940 l0 -1350 2125 0 2125 0 0 1350 0 1350 -2125 0 -2125 0 0
-1350z m1238 1090 c2 -13 11 -30 20 -37 16 -11 16 -12 0 -13 -9 0 -19 -8 -21
-17 -3 -10 -5 3 -6 30 0 26 -5 47 -11 47 -5 0 -10 5 -10 11 0 21 25 2 28 -21z
m-224 4 c9 -8 16 -26 16 -40 0 -15 6 -24 15 -24 8 0 15 -4 15 -10 0 -5 -4 -10
-10 -10 -5 0 -11 -17 -11 -37 -1 -23 -3 -29 -6 -16 -4 23 -9 23 -88 8 -19 -4
-19 -4 -1 10 11 8 16 21 13 30 -4 8 -2 15 4 15 5 0 12 -7 15 -15 4 -8 15 -15
26 -15 18 0 20 4 13 48 -4 26 -11 49 -16 50 -9 4 -13 22 -5 22 3 0 12 -7 20
-16z m301 -49 l-13 -50 -1 42 c-1 48 8 78 20 66 4 -4 2 -31 -6 -58z m-107 9
c-2 -10 -12 -20 -23 -21 -11 -2 -14 0 -7 3 17 8 15 34 -3 34 -9 0 -15 -9 -16
-22 0 -22 -1 -22 -9 -3 -11 26 -12 37 -2 32 4 -3 16 -1 27 3 24 9 38 -2 33
-26z m-328 0 c10 -25 13 -90 3 -66 -2 6 -12 12 -21 13 -12 0 -13 2 -3 6 11 5
11 7 0 14 -12 7 -12 10 -1 18 11 6 10 11 -3 25 -15 14 -15 16 0 16 8 0 20 -12
25 -26z m116 2 c3 -8 4 -23 1 -33 -4 -15 -6 -15 -12 5 -6 19 -13 22 -34 18
-25 -6 -25 -6 -7 9 25 19 45 19 52 1z m-156 -37 c0 -27 -18 -59 -32 -59 -9 0
-9 3 0 12 19 19 15 48 -5 42 -15 -5 -15 -3 1 10 26 21 36 20 36 -5z m-103 -33
c10 -21 21 -32 29 -29 8 3 14 1 14 -5 0 -6 -5 -12 -11 -14 -7 -2 -7 -12 1 -32
22 -58 0 -37 -29 28 -17 36 -35 66 -41 66 -5 0 -10 5 -10 10 0 24 32 7 47 -24z
m468 -2 c0 -10 8 -20 18 -22 9 -2 17 -8 17 -13 0 -13 -24 -11 -38 3 -9 9 -15
9 -24 0 -23 -23 -31 -12 -9 12 13 14 20 30 16 37 -5 7 -3 10 6 7 8 -3 14 -13
14 -24z m-500 -57 c-4 -18 -14 -39 -22 -47 -14 -13 -15 -13 -8 5 19 52 19 58
-4 50 -28 -9 -27 9 2 22 31 15 39 6 32 -30z m199 27 c3 -9 6 -25 5 -37 0 -21
-1 -21 -12 3 -6 14 -12 26 -13 28 -1 2 -12 -2 -24 -8 -12 -6 -24 -9 -27 -7 -4
5 45 36 58 37 4 0 10 -7 13 -16z m406 6 c0 -5 -4 -10 -10 -10 -5 0 -10 5 -10
10 0 6 5 10 10 10 6 0 10 -4 10 -10z m-769 -77 c32 -36 53 -63 47 -63 -2 0
-25 20 -51 45 -27 25 -42 45 -34 45 7 0 24 -12 38 -27z m-23 -32 c22 -13 11
-56 -16 -59 -27 -4 -38 18 -22 47 12 23 18 25 38 12z m100 -63 c-9 -26 -35
-32 -59 -13 l-24 17 27 -6 c15 -3 30 -2 33 4 9 14 28 13 23 -2z m-170 -28 c17
-11 32 -21 32 -23 0 -2 -13 -4 -30 -4 -18 0 -30 6 -30 14 0 7 -11 13 -26 13
-14 0 -23 4 -19 10 10 16 37 12 73 -10z m2692 -30 c19 -19 24 -33 21 -53 -1
-5 3 -6 9 -2 5 3 12 0 15 -7 2 -7 9 -26 15 -43 l12 -30 12 23 c6 12 21 28 31
36 24 15 90 27 111 19 40 -15 60 -131 34 -198 -11 -28 -12 -29 -25 -12 -7 10
-16 14 -19 9 -3 -6 1 -12 9 -16 16 -6 20 -52 7 -73 -4 -6 -23 -23 -43 -36 -33
-23 -38 -23 -85 -11 -59 16 -67 16 -60 6 3 -5 0 -9 -7 -9 -8 0 -11 12 -9 34 3
25 0 33 -12 33 -9 0 -21 -11 -26 -25 -5 -14 -12 -25 -15 -25 -4 0 -4 4 -1 8 6
11 2 11 -106 18 l-87 6 -12 35 c-27 84 42 280 113 320 36 19 95 16 118 -7z
m-2730 -6 c0 -11 6 -14 20 -9 11 4 20 2 20 -4 0 -6 -7 -11 -16 -11 -9 0 -14
-8 -13 -17 3 -35 -4 -47 -10 -18 -5 21 -12 29 -24 27 -15 -2 -15 0 -5 23 13
28 28 33 28 9z m136 -41 c-3 -3 -16 1 -29 10 -23 15 -25 15 -35 -6 -6 -12 -11
-16 -11 -9 -1 7 4 22 10 33 10 19 10 19 40 -2 17 -12 28 -24 25 -26z m917 25
c15 -6 27 -15 27 -20 0 -5 12 -21 27 -36 14 -14 30 -42 34 -62 29 -131 29
-133 14 -156 -13 -20 -18 -22 -52 -12 -20 5 -58 7 -84 4 -43 -6 -49 -4 -68 21
l-20 28 -1 -36 c0 -30 -8 -44 -45 -78 -24 -22 -47 -41 -49 -41 -19 0 -56 27
-80 61 -17 21 -36 39 -43 39 -16 0 -16 0 3 -45 8 -20 24 -39 35 -42 10 -3 19
-10 20 -17 0 -6 2 -19 4 -28 3 -15 -40 -115 -56 -128 -3 -3 -8 -13 -12 -22 -3
-10 -12 -15 -20 -12 -8 3 -23 -5 -34 -19 -15 -19 -23 -22 -41 -16 -13 5 -20
13 -17 19 3 5 -1 10 -10 10 -10 0 -13 5 -9 12 5 8 0 9 -14 6 -34 -9 -26 8 11
22 67 25 142 68 133 77 -4 5 -47 -15 -56 -26 -9 -11 -103 -41 -109 -36 -3 4 1
10 9 15 11 7 8 10 -14 10 -21 0 -27 4 -22 15 6 18 1 19 -25 5 -13 -8 -19 -7
-19 0 0 6 -5 8 -10 5 -6 -4 -8 -11 -5 -16 4 -5 -2 -6 -11 -2 -11 4 -13 8 -6
11 7 2 10 8 7 12 -3 5 -13 7 -23 4 -9 -4 -5 3 11 13 27 19 27 33 0 33 -8 0
-11 -4 -8 -10 3 -5 2 -10 -4 -10 -14 0 -43 31 -36 38 3 4 10 0 15 -8 6 -8 10
-10 10 -4 0 6 -3 14 -7 18 -5 4 -9 12 -9 17 -1 5 -2 14 -3 19 0 6 -7 10 -15
10 -8 0 -16 7 -20 15 -7 18 5 20 22 3 9 -9 16 -8 29 5 13 13 15 19 5 29 -9 9
-12 8 -12 -7 0 -16 -2 -17 -9 -6 -7 10 -5 18 5 26 24 17 -2 115 -26 100 -5 -3
-11 -1 -15 4 -9 16 36 3 56 -15 16 -14 24 -15 44 -6 20 9 25 9 25 -2 0 -8 -6
-17 -12 -20 -7 -3 -3 -3 10 0 16 4 22 1 22 -10 0 -9 5 -16 10 -16 6 0 10 5 10
11 0 6 6 4 14 -4 8 -8 31 -13 53 -12 30 1 37 5 35 18 -2 9 2 17 8 17 5 0 10
-4 10 -9 0 -5 15 -8 33 -7 22 2 31 7 28 17 -2 8 -4 43 -4 79 -1 48 5 76 21
108 13 23 26 42 30 43 71 10 84 6 141 -43 11 -9 17 -7 27 7 8 10 14 23 14 27
0 14 43 28 70 22 14 -2 37 -10 53 -16z m-399 -16 c3 -5 -1 -9 -9 -9 -8 0 -15
4 -15 9 0 4 4 8 9 8 6 0 12 -4 15 -8z m1692 -13 c4 -8 9 -7 14 2 7 10 11 10
24 0 9 -8 16 -10 16 -5 0 5 5 1 11 -9 5 -9 7 -22 4 -28 -4 -6 2 -13 14 -16 23
-6 27 -18 11 -28 -8 -5 -8 -11 0 -20 6 -7 8 -19 4 -28 -3 -8 -1 -18 5 -21 6
-4 8 -13 5 -20 -4 -11 -11 -11 -34 -3 -23 9 -27 14 -20 32 7 19 5 21 -16 17
-15 -3 -24 0 -24 8 0 10 -3 10 -15 0 -13 -11 -18 -10 -29 5 -7 10 -18 15 -24
11 -7 -4 -12 -2 -12 3 0 6 -5 11 -11 11 -6 0 -9 -7 -5 -15 3 -8 1 -15 -5 -15
-5 0 -12 7 -15 15 -4 8 -13 15 -21 15 -20 0 -11 24 12 28 10 2 21 -2 26 -10 7
-10 9 -9 9 4 0 9 -6 19 -12 21 -12 5 26 11 45 8 5 -1 8 7 7 16 -1 10 -2 21 -1
26 2 11 29 8 37 -4z m-1686 -46 c0 -16 -2 -16 -10 -3 -9 13 -12 13 -24 -2 -7
-10 -18 -18 -25 -18 -6 0 -11 -3 -11 -8 0 -4 18 -7 40 -7 22 0 40 -3 40 -8 0
-5 -11 -7 -25 -5 -14 3 -25 1 -25 -3 0 -23 -39 -6 -50 21 -7 16 -16 27 -21 24
-5 -3 -9 -1 -9 5 0 10 31 17 88 20 24 1 32 -3 32 -16z m-670 -14 c49 -18 85
-39 67 -39 -3 0 -31 9 -62 21 -31 12 -65 19 -76 16 -21 -6 -27 8 -6 16 19 8
19 8 77 -14z m-30 -60 c0 -28 14 -23 28 9 12 27 12 27 7 -7 -6 -42 -8 -44 -35
-36 -15 5 -19 12 -15 26 8 24 -3 25 -22 2 -8 -10 -13 -13 -10 -8 2 6 7 18 10
27 8 23 37 12 37 -13z m582 -1 c-7 -7 -12 -8 -12 -2 0 14 12 26 19 19 2 -3 -1
-11 -7 -17z m1768 -9 c0 -6 8 -9 18 -7 9 2 22 -1 28 -6 12 -12 7 -46 -8 -46
-5 0 -6 5 -3 10 3 6 1 10 -5 10 -6 0 -8 5 -4 11 4 6 -1 10 -12 8 -25 -3 -55
11 -48 22 7 13 34 11 34 -2z m-1730 -21 c0 -4 -7 -8 -15 -8 -8 0 -15 4 -15 8
0 5 7 9 15 9 8 0 15 -4 15 -9z m1584 -4 c3 -8 2 -12 -4 -9 -6 3 -10 10 -10 16
0 14 7 11 14 -7z m93 -30 c17 -5 23 -13 23 -35 0 -22 -10 -36 -46 -64 -44 -33
-83 -47 -69 -25 3 6 0 10 -7 10 -10 0 -9 3 2 11 12 9 10 10 -8 6 -19 -5 -22
-2 -16 11 4 9 9 32 12 50 4 29 12 37 36 33 16 -3 35 20 30 37 -2 9 1 7 7 -6 7
-12 23 -25 36 -28z m-199 1 c-4 -20 -3 -23 8 -14 8 6 20 9 29 6 8 -4 19 1 24
10 7 14 10 13 16 -6 5 -15 -1 -39 -16 -72 -25 -52 -33 -58 -43 -33 -7 19 1 34
19 34 8 0 17 5 21 12 5 8 2 9 -9 5 -12 -5 -17 -1 -17 13 0 26 -12 25 -36 -1
-17 -19 -19 -19 -25 -2 -7 16 -8 15 -8 -4 -1 -16 -7 -23 -20 -23 -11 0 -28 -3
-38 -6 -17 -5 -17 -5 0 6 9 6 17 20 17 30 0 11 7 20 15 20 8 0 15 9 15 20 0
13 5 18 15 14 8 -4 15 -1 15 5 0 6 5 11 11 11 7 0 9 -10 7 -25z m-2117 -27
c10 -7 1 -8 -28 -5 -23 3 -46 0 -52 -6 -13 -13 -26 -3 -16 12 3 6 19 11 36 11
16 0 29 5 29 13 0 9 3 8 9 -2 5 -7 15 -18 22 -23z m2385 6 c-5 -14 -9 -15 -19
-5 -9 9 -9 14 3 21 18 11 24 6 16 -16z m93 -6 c-12 -22 -21 -24 -13 -3 4 8 1
15 -5 15 -6 0 -11 -4 -11 -10 0 -5 -5 -10 -11 -10 -8 0 -8 4 0 14 7 8 21 14
31 13 15 -1 16 -5 9 -19z m-59 -21 c0 -5 -4 -5 -10 -2 -5 3 -10 14 -10 23 0
15 2 15 10 2 5 -8 10 -19 10 -23z m-2342 0 c9 -7 9 -13 2 -22 -13 -16 -50 -26
-50 -14 0 5 5 9 10 9 6 0 10 7 10 16 0 10 -6 14 -15 10 -15 -5 -21 5 -9 17 7
6 33 -1 52 -16z m2062 3 c0 -5 -5 -10 -11 -10 -5 0 -7 5 -4 10 3 6 8 10 11 10
2 0 4 -4 4 -10z m-2199 -46 c-5 -24 -9 -30 -10 -16 -1 12 -5 22 -11 22 -5 0
-2 8 8 18 9 10 18 18 20 17 1 -1 -2 -20 -7 -41z m67 -2 c-4 -23 -44 -28 -52
-6 -3 9 -1 23 5 30 15 18 51 -1 47 -24z m2384 -27 c4 -5 -1 -13 -12 -17 -11
-4 -22 -19 -26 -33 -4 -16 -12 -24 -19 -21 -19 7 -57 -79 -53 -118 2 -26 -1
-32 -20 -34 -15 -2 -27 -14 -33 -31 -8 -23 -16 -28 -42 -28 -22 -1 -26 1 -14
6 10 4 18 10 18 14 -3 22 0 28 9 22 12 -7 40 12 40 26 0 5 -7 9 -15 9 -8 0
-15 -4 -15 -9 0 -4 -11 -6 -25 -3 -14 2 -25 7 -25 11 0 13 16 29 35 35 11 3
28 20 37 36 10 17 32 37 50 45 19 8 25 14 16 15 -15 0 -16 4 -6 25 6 13 15 22
19 19 5 -3 20 6 34 20 29 29 21 34 -13 10 -24 -17 -29 -6 -12 27 10 18 12 18
38 2 15 -10 30 -22 34 -28z m-282 25 c-14 -9 -7 -14 13 -11 5 1 5 -4 2 -10 -4
-6 -16 -9 -26 -6 -11 3 -16 1 -13 -4 3 -5 -1 -23 -10 -39 -8 -17 -12 -30 -10
-30 10 0 39 34 35 39 -3 3 3 7 12 9 12 2 15 -1 11 -12 -4 -11 -1 -16 10 -16 9
0 16 5 16 12 0 13 29 48 41 48 20 0 12 -36 -11 -47 -24 -12 -24 -13 9 -7 18 3
49 15 68 26 40 24 58 15 24 -13 -13 -10 -20 -19 -16 -19 4 0 2 -7 -5 -15 -7
-8 -16 -13 -20 -10 -8 5 -69 -10 -112 -27 -32 -12 -38 -29 -8 -21 16 4 19 2
15 -13 -4 -11 1 -7 9 7 11 18 27 28 53 32 20 4 38 5 40 3 1 -1 -11 -15 -27
-31 -17 -16 -30 -23 -30 -17 0 7 5 12 11 12 5 0 7 5 4 10 -4 6 -12 4 -21 -5
-9 -8 -12 -19 -9 -25 3 -5 -3 -10 -14 -10 -12 0 -21 -4 -21 -8 0 -11 -48 -13
-55 -2 -3 5 4 7 15 5 26 -5 26 7 0 23 -12 7 -20 8 -20 2 0 -19 -28 -10 -33 11
-5 18 -2 20 18 15 25 -6 41 7 30 24 -5 8 -11 7 -21 -1 -28 -23 -46 -3 -41 46
3 25 1 43 -3 40 -5 -3 -11 -1 -14 4 -4 5 7 12 24 16 16 4 32 11 35 16 4 5 18
9 33 9 21 0 24 -2 12 -10z m656 -67 c16 -11 45 -28 65 -37 20 -9 46 -31 59
-48 l22 -30 -31 -32 c-26 -26 -39 -31 -77 -31 -24 0 -48 5 -52 10 -4 6 -18 11
-32 13 -14 2 -40 8 -59 14 -18 5 -51 7 -72 4 -21 -3 -39 -2 -39 3 0 5 -7 12
-16 15 -8 3 -12 2 -9 -4 3 -6 1 -10 -4 -10 -6 0 -11 5 -11 10 0 6 -5 10 -11
10 -5 0 -7 -4 -4 -10 3 -5 3 -10 -2 -10 -11 1 -44 27 -44 34 3 21 0 26 -10 20
-25 -15 12 36 41 56 53 38 100 50 181 47 57 -3 83 -9 105 -24z m-784 -150 c10
-9 18 -23 18 -32 -1 -14 -3 -14 -14 2 -12 15 -14 16 -20 2 -3 -8 0 -15 6 -15
7 0 6 -5 -2 -15 -16 -20 -30 -3 -30 36 0 41 13 48 42 22z m84 -22 c7 -8 11
-20 10 -26 -2 -5 -1 -7 1 -2 8 13 25 7 20 -7 -4 -9 2 -17 14 -21 20 -7 27 -25
8 -25 -5 0 -8 -4 -4 -9 6 -10 -11 -24 -33 -27 -11 -2 -11 1 -1 13 11 12 9 18
-10 32 -17 13 -21 24 -17 38 8 24 -19 57 -36 47 -7 -4 -8 -2 -4 4 8 13 37 4
52 -17z m366 13 c7 -5 37 -21 65 -34 62 -30 73 -47 36 -61 -20 -7 -30 -6 -44
7 -15 13 -30 15 -69 11 -36 -4 -49 -3 -44 5 4 7 3 8 -5 4 -8 -6 -9 -12 -2 -20
14 -17 2 -29 -15 -16 -9 9 -9 20 2 56 7 24 15 48 18 53 7 10 41 7 58 -5z
m-292 -14 c6 -11 9 -20 7 -20 -2 0 -12 9 -22 20 -10 11 -13 20 -7 20 6 0 16
-9 22 -20z m540 -2 c0 -5 -9 -8 -19 -8 -11 0 -26 -3 -35 -6 -10 -4 -16 -1 -16
9 0 11 9 15 35 14 19 -1 35 -5 35 -9z m-90 -39 c0 -6 -4 -7 -10 -4 -5 3 -10
11 -10 16 0 6 5 7 10 4 6 -3 10 -11 10 -16z m230 10 c0 -5 6 -7 13 -3 9 5 9 4
0 -6 -18 -19 -60 -21 -67 -4 -3 8 -2 12 3 9 5 -3 12 -1 16 5 8 13 35 13 35 -1z
m-74 -11 c4 -6 3 -8 -4 -4 -5 3 -12 0 -15 -6 -2 -7 -8 -10 -12 -6 -8 8 2 28
15 28 5 0 12 -5 16 -12z m-703 -13 c4 -8 3 -16 -1 -19 -4 -3 -9 4 -9 15 -2 23
3 25 10 4z m-26 -7 c0 -7 3 -28 7 -45 5 -22 4 -33 -3 -33 -6 0 -11 13 -11 29
0 16 -3 36 -6 45 -3 9 -2 16 3 16 5 0 10 -6 10 -12z m880 -30 c-3 -8 -6 -5 -6
6 -1 11 2 17 5 13 3 -3 4 -12 1 -19z m-737 -3 c0 -8 -4 -15 -10 -15 -5 0 -10
7 -10 15 0 8 5 15 10 15 6 0 10 -7 10 -15z m50 -3 c0 -5 -7 -9 -15 -9 -8 0
-15 4 -15 9 0 4 7 8 15 8 8 0 15 -4 15 -8z m671 -9 c13 -16 12 -17 -3 -4 -17
13 -22 21 -14 21 2 0 10 -8 17 -17z m-411 -2 c0 -12 -57 -34 -69 -26 -19 11
-12 24 17 28 48 7 52 7 52 -2z m-1790 -5 c0 -2 -7 -7 -16 -10 -8 -3 -12 -2 -9
4 6 10 25 14 25 6z m1480 -26 c-25 -7 -25 -7 5 -12 l30 -4 -38 -8 c-44 -10
-48 -7 -41 20 4 17 11 19 37 15 31 -4 31 -5 7 -11z m413 -24 c9 3 13 -6 13
-29 l0 -34 -64 12 c-34 7 -68 17 -74 23 -15 15 -1 45 17 38 8 -3 17 -1 20 4 4
6 20 4 41 -5 19 -8 40 -12 47 -9z m249 -34 c-6 -2 -12 -10 -12 -18 0 -8 -4
-14 -10 -14 -5 0 -9 11 -8 24 2 18 7 22 22 18 11 -3 15 -7 8 -10z m-621 -19
c12 -14 12 -16 0 -8 -11 6 -13 3 -9 -13 5 -17 3 -20 -9 -14 -8 5 -26 7 -39 4
-21 -4 -23 -7 -12 -21 9 -11 6 -10 -9 3 -27 22 -22 36 10 29 22 -5 22 -5 2 10
-11 9 -15 17 -9 17 5 0 15 -5 20 -10 6 -6 19 -8 28 -4 14 5 15 9 4 15 -8 5 -9
9 -2 9 6 0 18 -8 25 -17z m495 -1 c-4 -24 -32 -27 -32 -4 0 10 8 19 17 19 11
1 16 -5 15 -15z m-639 -18 c-3 -3 -12 -4 -19 -1 -8 3 -5 6 6 6 11 1 17 -2 13
-5z m27 -12 c3 -5 -1 -9 -9 -9 -8 0 -12 4 -9 9 3 4 7 8 9 8 2 0 6 -4 9 -8z
m740 -62 c49 -15 76 -39 76 -66 0 -17 -8 -24 -30 -29 -16 -4 -38 -4 -47 -1
-22 7 -68 76 -64 95 1 8 -3 12 -12 8 -7 -3 -14 1 -14 7 0 13 2 13 91 -14z
m-360 -39 c-3 -3 -15 6 -27 18 l-22 24 27 -19 c14 -10 24 -21 22 -23z m-1665
-447 c2 -10 8 -22 15 -26 7 -5 7 -8 -3 -8 -10 0 -11 -3 -2 -14 9 -10 8 -15 -3
-19 -10 -4 -16 5 -21 29 -3 20 -9 42 -12 51 -4 11 -2 14 8 11 8 -3 16 -13 18
-24z m1521 -19 c0 -18 6 -36 13 -39 10 -5 10 -7 0 -12 -7 -3 -13 -16 -13 -29
0 -13 -4 -26 -8 -29 -4 -2 -6 27 -4 65 3 46 1 69 -7 69 -6 0 -11 4 -11 10 0 5
7 7 15 4 9 -4 15 -19 15 -39z m258 -39 l-2 -61 -3 55 c-2 30 -8 59 -14 65 -15
15 -10 28 6 15 11 -9 14 -30 13 -74z m142 74 c0 -5 -7 -10 -15 -10 -27 0 -15
-20 13 -21 15 0 21 -3 15 -6 -19 -7 -16 -31 5 -36 9 -3 -5 -5 -33 -4 -27 0
-40 2 -27 4 26 5 26 3 7 39 -14 28 -14 29 8 36 12 3 23 6 25 7 1 1 2 -3 2 -9z
m150 -40 c0 -16 6 -31 13 -33 8 -4 9 -8 1 -14 -6 -4 -16 -21 -22 -38 -9 -27
-11 -23 -11 37 -1 36 -4 75 -8 85 -6 16 -5 16 10 4 9 -7 17 -26 17 -41z
m-2182 -1 c5 -59 -11 -114 -33 -114 -28 0 -32 35 -6 42 23 6 30 43 9 44 -7 0
-4 4 7 9 11 5 16 9 10 9 -5 1 -11 12 -11 26 -3 39 21 24 24 -16z m232 -6 c0
-25 -2 -44 -4 -42 -8 10 -13 89 -5 89 5 0 9 -21 9 -47z m78 33 c-24 -18 -23
-26 5 -26 14 0 18 -3 10 -8 -14 -9 -5 -26 17 -35 8 -3 -10 -5 -40 -5 -30 1
-43 3 -27 5 24 4 41 33 18 33 -5 0 -11 9 -14 20 -5 19 5 28 33 29 12 0 11 -2
-2 -13z m162 -32 c0 -20 5 -34 13 -34 8 0 8 -3 1 -8 -5 -4 -15 -23 -21 -42
-10 -33 -11 -32 -12 32 -1 36 -4 74 -7 82 -5 12 -2 15 10 10 10 -4 16 -18 16
-40z m1298 8 c2 -18 7 -32 13 -32 5 0 9 -4 9 -10 0 -5 -6 -10 -14 -10 -8 0
-16 -12 -18 -27 -2 -16 -6 5 -9 45 -2 45 0 71 6 69 6 -2 11 -18 13 -35z
m-1698 2 c11 -12 10 -18 -3 -31 -8 -9 -23 -13 -31 -10 -19 8 -21 43 -3 50 20
9 24 8 37 -9z m132 -31 c7 -9 7 -13 0 -13 -6 0 -14 5 -17 10 -4 7 -14 6 -27
-1 -20 -11 -20 -10 3 18 18 23 25 26 28 14 2 -9 8 -22 13 -28z m1384 32 c14
-13 11 -15 -23 -14 -23 1 -29 3 -15 6 12 2 20 9 17 14 -9 14 5 11 21 -6z m139
-10 c0 -13 -8 -21 -22 -23 -17 -3 -23 2 -23 16 0 10 3 22 7 26 13 13 38 1 38
-19z m570 -5 c-3 -11 1 -20 11 -24 9 -4 14 -9 11 -13 -4 -3 -13 0 -21 6 -11
10 -20 10 -36 1 -32 -17 -35 -6 -5 14 15 10 24 23 21 31 -3 9 0 12 10 8 9 -3
12 -13 9 -23z m-2335 12 c0 -16 -32 -52 -47 -52 -11 0 -9 5 8 20 23 18 23 19
4 20 -17 0 -17 2 -5 10 18 12 40 13 40 2z m625 -14 c0 -8 6 -23 14 -32 15 -18
1 -22 -17 -4 -9 9 -18 9 -39 -1 l-28 -12 29 24 c19 15 26 28 21 37 -5 8 -3 11
6 8 8 -3 14 -12 14 -20z m1272 6 c3 -8 -1 -23 -10 -31 -13 -13 -19 -14 -31 -3
-28 22 -17 47 22 49 7 1 15 -6 19 -15z m293 7 c0 -20 -13 -42 -32 -52 -19 -10
-19 -10 -2 16 9 14 14 28 11 31 -3 3 -10 -4 -17 -15 -6 -12 -18 -21 -27 -21
-14 0 -14 2 3 15 16 13 17 16 4 25 -11 7 -6 10 23 10 20 0 37 -4 37 -9z
m-1710 -13 c-1 -15 -24 -48 -34 -48 -4 0 -2 9 4 21 16 28 7 33 -15 9 -10 -11
-22 -20 -27 -20 -5 0 -2 7 7 16 13 14 14 19 3 25 -8 6 0 9 25 9 23 0 37 -5 37
-12z m1155 -33 c0 -23 -34 -33 -46 -14 -10 17 9 41 30 37 9 -2 16 -12 16 -23z
m131 -15 c8 0 14 -4 14 -8 0 -4 -17 -6 -37 -3 -21 3 -30 6 -20 9 9 2 17 9 18
15 0 8 2 8 6 0 2 -7 11 -13 19 -13z m-1629 -11 c16 -16 5 -39 -17 -39 -25 0
-35 18 -20 35 15 18 22 19 37 4z m133 -13 c0 -14 -4 -28 -10 -31 -6 -4 -10 5
-10 20 0 20 -4 26 -15 21 -8 -3 -15 -1 -15 4 0 6 11 10 25 10 20 0 25 -5 25
-24z m70 -2 c0 -8 10 -14 23 -15 21 0 21 -1 2 -9 -23 -9 -30 -4 -40 29 -5 16
-4 21 4 17 6 -4 11 -14 11 -22z m1714 11 c3 -8 16 -15 28 -16 l23 0 -23 -10
c-28 -11 -38 -6 -45 21 -6 23 8 27 17 5z m310 -3 c2 -4 -22 -8 -54 -7 -32 0
-56 3 -53 8 6 9 100 9 107 -1z m-1704 -10 c0 -4 -19 -6 -42 -4 -71 5 -77 10
-15 11 31 0 57 -2 57 -7z m2010 -95 c0 -13 -6 -29 -12 -36 -11 -10 -9 -15 5
-25 15 -12 8 -14 -53 -20 -55 -6 -73 -12 -84 -28 -9 -12 -13 -25 -10 -30 3 -4
-2 -8 -10 -8 -9 0 -16 5 -16 10 0 6 5 10 10 10 6 0 10 6 10 14 0 25 30 46 66
46 39 0 39 -1 19 36 -21 42 -19 63 13 93 l27 26 18 -32 c9 -18 17 -43 17 -56z
m111 -23 c-5 -42 -9 -49 -35 -55 -42 -12 -55 2 -15 15 24 8 35 18 37 35 2 13
-1 27 -7 31 -7 3 -9 14 -5 24 13 34 30 -1 25 -50z m-103 -118 c4 -16 0 -18
-29 -12 -40 8 -48 14 -29 27 23 14 54 6 58 -15z m-64 -193 c-17 -17 -18 -17
-11 0 4 10 7 28 8 40 l0 22 11 -22 c8 -17 7 -26 -8 -40z m84 28 c-1 -16 4 -36
11 -45 14 -17 12 -19 -13 -10 -23 9 -21 84 1 84 3 0 3 -13 1 -29z"/>
<path d="M2555 2771 c-3 -5 -1 -12 5 -16 12 -7 30 2 30 16 0 12 -27 12 -35 0z"/>
<path d="M5115 2610 c-3 -5 -2 -10 4 -10 5 0 13 5 16 10 3 6 2 10 -4 10 -5 0
-13 -4 -16 -10z"/>
<path d="M5150 2599 c0 -5 5 -7 10 -4 6 3 10 8 10 11 0 2 -4 4 -10 4 -5 0 -10
-5 -10 -11z"/>
<path d="M5140 2570 c0 -5 5 -10 10 -10 6 0 10 5 10 10 0 6 -4 10 -10 10 -5 0
-10 -4 -10 -10z"/>
<path d="M5174 2558 c3 -13 6 -29 6 -35 0 -7 4 -13 8 -13 7 0 8 22 3 63 -1 4
-6 7 -12 7 -7 0 -9 -9 -5 -22z"/>
<path d="M5124 2557 c8 -25 -4 -44 -15 -26 -7 11 -9 10 -9 -3 0 -10 6 -18 14
-18 8 0 17 -7 20 -16 5 -14 4 -15 -9 -4 -11 9 -15 9 -15 1 0 -7 -4 -9 -10 -6
-5 3 -10 2 -10 -3 0 -5 18 -9 40 -10 22 -1 40 3 40 8 0 6 -5 10 -11 10 -5 0
-7 5 -4 10 3 6 -1 10 -10 10 -11 0 -15 6 -11 18 3 9 1 24 -5 32 -9 12 -10 12
-5 -3z"/>
<path d="M5073 2520 c1 -11 5 -20 9 -20 3 0 6 9 5 20 -1 11 -5 20 -9 20 -3 0
-6 -9 -5 -20z"/>
<path d="M5405 2511 c-3 -5 -1 -12 5 -16 5 -3 10 1 10 9 0 18 -6 21 -15 7z"/>
<path d="M5180 2480 c0 -5 5 -10 10 -10 6 0 10 5 10 10 0 6 -4 10 -10 10 -5 0
-10 -4 -10 -10z"/>
<path d="M5330 2465 c0 -8 4 -15 10 -15 5 0 7 7 4 15 -4 8 -8 15 -10 15 -2 0
-4 -7 -4 -15z"/>
<path d="M5371 2453 c0 -11 3 -13 6 -5 2 6 10 9 15 6 7 -4 8 -2 4 4 -11 18
-26 14 -25 -5z"/>
<path d="M5410 2453 c0 -13 5 -23 10 -23 13 0 13 11 0 30 -8 12 -10 11 -10 -7z"/>
<path d="M5440 2454 c0 -8 5 -12 10 -9 6 4 8 11 5 16 -9 14 -15 11 -15 -7z"/>
<path d="M5373 2433 c-25 -5 -30 -18 -10 -26 10 -4 10 -6 0 -6 -7 -1 -13 -6
-13 -13 0 -7 6 -6 18 4 9 9 23 14 30 12 7 -1 8 0 3 2 -6 3 -7 12 -4 20 3 8 4
13 2 13 -2 -1 -14 -4 -26 -6z"/>
<path d="M5320 2370 c0 -5 5 -10 10 -10 6 0 10 5 10 10 0 6 -4 10 -10 10 -5 0
-10 -4 -10 -10z"/>
<path d="M5370 2370 c0 -5 5 -10 10 -10 6 0 10 5 10 10 0 6 -4 10 -10 10 -5 0
-10 -4 -10 -10z"/>
<path d="M3470 2570 c0 -5 5 -10 10 -10 6 0 10 5 10 10 0 6 -4 10 -10 10 -5 0
-10 -4 -10 -10z"/>
<path d="M3504 2549 c-7 -12 -7 -12 21 -27 13 -7 15 -12 6 -12 -8 0 -23 7 -33
17 -19 17 -24 8 -9 -15 7 -12 56 -42 68 -42 3 0 0 7 -7 15 -6 8 -9 19 -5 24 3
6 -3 19 -14 30 -13 13 -23 16 -27 10z"/>
<path d="M3302 2532 c-7 -5 -10 -16 -6 -25 4 -11 0 -19 -10 -23 -23 -9 -20
-27 4 -19 13 4 23 0 31 -13 12 -19 13 -19 32 -2 18 18 18 20 2 42 -10 14 -16
17 -14 8 1 -8 1 -24 0 -34 -1 -20 -1 -20 -15 0 -8 10 -10 21 -5 22 11 4 12 52
2 52 -5 0 -14 -4 -21 -8z"/>
<path d="M3260 2520 c0 -5 5 -10 10 -10 6 0 10 5 10 10 0 6 -4 10 -10 10 -5 0
-10 -4 -10 -10z"/>
<path d="M3480 2480 c0 -5 5 -10 11 -10 5 0 8 -4 4 -9 -3 -6 4 -9 15 -8 23 1
28 17 5 17 -8 0 -15 5 -15 10 0 6 -4 10 -10 10 -5 0 -10 -4 -10 -10z"/>
<path d="M3365 2440 c-3 -5 -1 -10 4 -10 6 0 11 5 11 10 0 6 -2 10 -4 10 -3 0
-8 -4 -11 -10z"/>
<path d="M3275 2420 c-3 -5 -1 -10 4 -10 6 0 11 5 11 10 0 6 -2 10 -4 10 -3 0
-8 -4 -11 -10z"/>
<path d="M2975 2350 c3 -5 8 -10 11 -10 2 0 4 5 4 10 0 6 -5 10 -11 10 -5 0
-7 -4 -4 -10z"/>
<path d="M2880 2289 c0 -5 5 -7 10 -4 6 3 10 8 10 11 0 2 -4 4 -10 4 -5 0 -10
-5 -10 -11z"/>
<path d="M2937 2259 c7 -7 15 -10 18 -7 3 3 -2 9 -12 12 -14 6 -15 5 -6 -5z"/>
<path d="M3042 2229 c-13 -5 -28 -7 -32 -4 -5 3 -11 1 -15 -5 -3 -5 -15 -10
-26 -10 -10 0 -19 -4 -19 -10 0 -14 11 -13 53 5 20 8 50 15 66 15 16 0 33 5
36 10 8 12 -32 12 -63 -1z"/>
<path d="M3094 2075 c25 -19 32 -19 40 0 4 11 -2 15 -27 15 -30 -1 -31 -1 -13
-15z"/>
<path d="M4839 2579 c29 -24 40 -24 38 -1 -1 12 -10 18 -31 19 l-31 1 24 -19z"/>
<path d="M4833 2553 c-17 -6 -17 -23 0 -23 8 0 14 7 14 15 0 8 -1 15 -1 14 -1
0 -7 -3 -13 -6z"/>
<path d="M2387 2354 c-8 -8 1 -24 14 -24 5 0 9 7 9 15 0 15 -12 20 -23 9z"/>
<path d="M4689 2193 c-13 -16 -12 -17 4 -4 9 7 17 15 17 17 0 8 -8 3 -21 -13z"/>
<path d="M4638 2253 c7 -3 16 -2 19 1 4 3 -2 6 -13 5 -11 0 -14 -3 -6 -6z"/>
<path d="M4370 2119 c0 -5 5 -7 10 -4 6 3 10 8 10 11 0 2 -4 4 -10 4 -5 0 -10
-5 -10 -11z"/>
<path d="M4808 2103 c7 -3 16 -2 19 1 4 3 -2 6 -13 5 -11 0 -14 -3 -6 -6z"/>
<path d="M3062 1189 c2 -6 8 -10 13 -10 5 0 11 4 13 10 2 6 -4 11 -13 11 -9 0
-15 -5 -13 -11z"/>
<path d="M3144 1279 c-10 -17 13 -36 27 -22 12 12 4 33 -11 33 -5 0 -12 -5
-16 -11z"/>
<path d="M4800 1275 c0 -9 5 -15 11 -13 6 2 11 8 11 13 0 5 -5 11 -11 13 -6 2
-11 -4 -11 -13z"/>
<path d="M4925 1270 c-3 -6 1 -13 10 -16 19 -8 30 0 20 15 -8 14 -22 14 -30 1z"/>
<path d="M4670 1235 c0 -9 5 -15 11 -13 6 2 11 8 11 13 0 5 -5 11 -11 13 -6 2
-11 -4 -11 -13z"/>
<path d="M3186 1201 c-4 -7 -5 -15 -2 -18 9 -9 19 4 14 18 -4 11 -6 11 -12 0z"/>
<path d="M5698 1130 c2 -16 9 -30 16 -31 6 -1 1 -4 -12 -7 -13 -4 -23 -11 -23
-17 -1 -15 14 -16 34 0 17 12 18 18 7 49 -14 44 -28 47 -22 6z"/>
<path d="M5673 1133 c-18 -7 -16 -33 2 -33 8 0 15 9 15 20 0 11 -1 20 -2 19
-2 0 -9 -3 -15 -6z"/>
<path d="M0 1110 l0 -920 4200 0 4200 0 0 920 0 920 -990 0 -990 0 0 -770 0
-770 -2225 0 -2225 0 0 770 0 770 -985 0 -985 0 0 -920z"/>
</g>
</svg>
