<?xml version="1.0" standalone="no"?>
<!DOCTYPE svg PUBLIC "-//W3C//DTD SVG 20010904//EN"
 "http://www.w3.org/TR/2001/REC-SVG-20010904/DTD/svg10.dtd">
<svg version="1.0" xmlns="http://www.w3.org/2000/svg"
 width="386.000000pt" height="57.000000pt" viewBox="0 0 386.000000 57.000000"
 preserveAspectRatio="xMidYMid meet">

<g transform="translate(0.000000,57.000000) scale(0.100000,-0.100000)"
fill="#000000" stroke="none">
<path d="M1620 506 c0 -7 7 -19 15 -26 11 -9 15 -33 15 -89 0 -80 7 -121 20
-121 16 0 30 64 30 132 0 60 -3 72 -25 93 -26 27 -55 33 -55 11z"/>
<path d="M2440 507 c0 -7 7 -22 15 -33 11 -14 14 -49 15 -136 0 -116 5 -148
21 -148 16 0 29 76 29 172 0 113 -3 124 -41 143 -34 18 -39 19 -39 2z"/>
<path d="M905 490 c-3 -4 6 -22 20 -38 22 -27 25 -39 25 -111 l0 -81 -32 0
c-18 0 -49 -3 -69 -6 l-36 -6 -7 49 c-5 44 -10 51 -41 66 -39 19 -54 8 -25
-18 15 -14 20 -31 20 -70 0 -31 5 -57 13 -64 18 -14 120 2 154 25 l25 16 -3
-94 c-3 -55 0 -95 6 -98 12 -6 32 56 40 123 6 44 8 47 35 47 30 0 45 21 27 39
-6 6 -21 11 -34 11 -22 0 -23 3 -23 83 0 67 -3 87 -18 100 -24 21 -70 38 -77
27z"/>
<path d="M1350 489 c-14 -4 -46 -7 -72 -8 -27 -1 -48 -5 -48 -9 0 -17 25 -32
53 -32 36 0 29 -11 -35 -52 -49 -32 -50 -33 -24 -36 17 -2 42 6 65 21 36 24
37 24 60 6 27 -22 81 -26 81 -6 0 20 -21 37 -46 37 -32 0 -37 14 -14 35 35 32
24 57 -20 44z"/>
<path d="M3220 480 c0 -10 16 -32 35 -47 l35 -28 0 -165 c0 -173 7 -211 31
-169 10 18 14 69 14 194 l0 170 -49 32 c-56 38 -66 40 -66 13z"/>
<path d="M1970 485 c0 -3 5 -14 12 -25 16 -26 -11 -63 -81 -110 -36 -24 -47
-36 -36 -38 26 -6 58 5 97 32 36 24 37 24 53 6 24 -26 84 -45 97 -32 18 18 0
41 -41 52 -45 12 -48 17 -26 46 21 28 19 38 -14 57 -28 16 -61 23 -61 12z"/>
<path d="M3400 471 c0 -5 7 -14 15 -21 9 -7 15 -29 15 -53 0 -60 19 -76 78
-66 26 5 64 11 85 14 38 6 39 7 21 27 -15 16 -27 19 -59 14 -23 -3 -49 -8 -58
-12 -14 -5 -17 0 -17 25 0 21 -9 41 -25 56 -24 25 -55 33 -55 16z"/>
<path d="M545 453 c-32 -8 -62 -16 -64 -19 -14 -13 30 -23 77 -18 l52 6 0 -55
c0 -63 11 -78 34 -45 19 27 21 119 4 136 -14 14 -26 14 -103 -5z"/>
<path d="M2580 451 c0 -5 7 -14 15 -21 8 -7 15 -27 15 -44 0 -58 18 -70 94
-62 132 13 160 53 33 48 l-77 -4 0 31 c0 20 -8 35 -22 45 -24 17 -58 21 -58 7z"/>
<path d="M130 439 c0 -6 7 -17 15 -25 9 -9 15 -34 15 -58 0 -59 16 -70 89 -63
74 8 111 22 111 43 0 15 -9 16 -75 10 l-75 -7 0 31 c0 19 -9 40 -25 55 -25 26
-55 33 -55 14z"/>
<path d="M1513 443 c-29 -2 -53 -7 -53 -12 0 -17 26 -31 57 -31 42 0 41 -10
-1 -54 -33 -35 -56 -46 -56 -26 0 11 -100 13 -213 4 -65 -6 -75 -9 -65 -21 9
-11 40 -14 140 -12 71 0 132 -2 135 -5 14 -14 53 -5 81 18 36 31 77 108 69
129 -4 10 -14 16 -24 15 -10 -1 -42 -3 -70 -5z"/>
<path d="M3170 404 c0 -3 9 -17 20 -31 11 -14 20 -36 20 -49 0 -19 -5 -24 -25
-24 -15 0 -25 -6 -25 -14 0 -16 26 -46 41 -46 5 0 9 -29 9 -64 0 -74 12 -90
35 -47 11 21 15 60 15 135 0 101 -1 105 -26 125 -25 20 -64 29 -64 15z"/>
<path d="M2319 377 c-42 -28 -47 -52 -18 -83 28 -30 88 -33 112 -6 36 40 10
112 -40 112 -11 0 -35 -10 -54 -23z m65 -48 c-7 -13 -31 -11 -40 2 -9 16 18
30 33 17 7 -6 10 -14 7 -19z"/>
<path d="M3062 343 c-28 -4 -31 -7 -21 -19 6 -8 24 -14 40 -14 27 0 29 -3 29
-39 0 -33 -4 -40 -22 -43 -36 -5 -28 -33 10 -36 49 -5 57 8 57 85 l0 68 -30 1
c-16 1 -45 -1 -63 -3z"/>
<path d="M2988 298 c11 -18 23 -48 27 -66 9 -45 29 -35 33 17 4 50 -18 81 -55
81 l-25 0 20 -32z"/>
<path d="M3438 293 c-102 -5 -106 -31 -8 -43 l45 -5 3 -72 c2 -40 7 -73 12
-73 18 0 30 39 30 94 0 41 4 56 14 56 21 0 26 -23 26 -110 0 -43 5 -82 10 -85
20 -13 42 66 38 137 l-4 67 31 3 c19 2 30 9 30 18 0 16 -69 20 -227 13z"/>
<path d="M575 283 c-16 -1 -58 -6 -93 -9 -53 -5 -61 -8 -51 -20 7 -8 30 -14
60 -14 67 0 79 -20 79 -127 0 -45 4 -84 10 -88 30 -18 55 148 30 196 -10 17
-7 19 33 19 51 0 91 24 67 40 -14 9 -72 11 -135 3z"/>
<path d="M2654 280 c-82 -9 -114 -18 -114 -31 0 -13 307 -12 316 2 19 32 -68
44 -202 29z"/>
<path d="M1932 270 c-45 -4 -86 -10 -90 -14 -12 -13 22 -26 69 -26 63 0 73
-15 79 -118 5 -90 21 -116 40 -67 14 37 13 158 -2 173 -9 9 -1 12 38 12 53 0
92 19 80 38 -8 13 -80 14 -214 2z"/>
<path d="M1303 263 c-29 -2 -53 -8 -53 -12 0 -21 30 -31 69 -25 36 6 41 4 35
-10 -4 -12 -19 -16 -53 -16 -56 0 -64 -6 -50 -32 8 -14 8 -23 0 -31 -6 -6 -11
-19 -11 -29 0 -16 9 -18 78 -18 77 0 122 13 130 38 3 10 -12 12 -72 6 -73 -6
-76 -6 -76 15 0 18 6 21 46 21 37 0 45 3 40 15 -3 9 0 24 6 35 9 14 9 22 -1
34 -8 9 -19 15 -25 14 -6 -1 -35 -3 -63 -5z"/>
<path d="M180 253 c-30 -2 -62 -6 -70 -9 -30 -11 22 -34 77 -34 64 0 69 -8 79
-113 4 -42 10 -77 14 -77 18 0 32 64 28 130 l-4 70 46 0 c50 0 76 12 66 29 -7
11 -102 12 -236 4z"/>
<path d="M1597 253 c-48 -3 -58 -7 -55 -21 3 -14 13 -16 51 -14 42 3 47 1 47
-17 0 -18 -6 -21 -51 -21 -38 0 -48 -3 -42 -12 4 -7 8 -31 8 -53 l0 -40 65 3
c67 4 100 15 100 33 0 7 -20 9 -59 4 -54 -6 -59 -5 -64 14 -5 19 -1 21 40 21
36 0 44 3 42 18 -2 9 1 27 5 40 7 22 -8 55 -23 50 -3 -1 -32 -3 -64 -5z"/>
<path d="M2418 214 c-3 -3 -1 -17 4 -32 8 -21 6 -36 -7 -67 -11 -27 -19 -35
-23 -25 -3 8 -11 19 -19 23 -10 6 -13 17 -9 33 8 29 -9 64 -30 64 -11 0 -13
-6 -9 -20 5 -14 -4 -35 -29 -70 -36 -50 -36 -50 -11 -50 13 0 28 8 34 17 9 16
11 16 28 1 30 -27 74 -34 89 -13 12 16 15 17 37 2 18 -11 27 -13 35 -5 14 14
-3 48 -24 48 -12 0 -14 7 -9 29 5 22 1 35 -14 50 -21 21 -33 25 -43 15z"/>
<path d="M2610 202 c0 -5 9 -17 20 -27 13 -12 20 -31 20 -55 0 -52 18 -64 83
-56 29 3 68 11 85 17 34 12 44 38 15 40 -24 2 -21 2 -80 -6 -52 -7 -53 -7 -53
20 0 31 -41 75 -70 75 -11 0 -20 -4 -20 -8z"/>
<path d="M3692 148 c-17 -17 -15 -48 3 -48 19 0 19 -5 -1 -36 -25 -37 -9 -41
26 -5 25 24 31 38 28 63 -3 36 -32 50 -56 26z"/>
</g>
</svg>
