<?xml version="1.0" standalone="no"?>
<!DOCTYPE svg PUBLIC "-//W3C//DTD SVG 20010904//EN"
 "http://www.w3.org/TR/2001/REC-SVG-20010904/DTD/svg10.dtd">
<svg version="1.0" xmlns="http://www.w3.org/2000/svg"
 width="258.000000pt" height="58.000000pt" viewBox="0 0 258.000000 58.000000"
 preserveAspectRatio="xMidYMid meet">

<g transform="translate(0.000000,58.000000) scale(0.100000,-0.100000)"
fill="#000000" stroke="none">
<path d="M1450 537 c0 -8 9 -22 20 -32 17 -15 20 -33 22 -146 2 -77 7 -129 13
-130 6 -1 17 20 25 45 13 39 19 46 41 46 14 0 30 5 35 10 8 8 15 6 24 -5 14
-17 81 -20 110 -5 28 15 44 73 29 102 -16 32 -28 38 -71 38 -51 0 -91 -35 -90
-80 1 -24 -2 -30 -11 -21 -6 6 -21 11 -34 11 -22 0 -23 4 -23 69 0 68 -1 70
-34 90 -39 24 -56 27 -56 8z m280 -128 c21 -38 -37 -78 -68 -47 -17 17 -15 45
6 57 27 16 50 13 62 -10z"/>
<path d="M1790 538 c0 -7 7 -22 15 -32 10 -13 15 -44 15 -92 0 -80 8 -134 21
-134 14 0 29 73 29 148 0 66 -2 75 -26 97 -29 27 -54 33 -54 13z"/>
<path d="M500 510 c0 -10 10 -26 21 -34 21 -14 22 -20 17 -201 -3 -102 -1
-188 4 -191 13 -8 35 53 43 119 6 55 8 57 36 57 16 0 29 5 29 10 0 7 6 7 19 0
11 -5 40 -10 64 -10 25 0 49 -6 56 -14 6 -7 14 -54 18 -105 3 -50 10 -91 14
-91 31 0 51 127 29 184 -9 25 -8 26 30 26 21 0 51 5 66 10 25 10 26 12 11 27
-14 15 -31 15 -159 5 -89 -7 -147 -7 -152 -1 -6 5 -20 9 -33 9 -22 0 -23 3
-23 83 0 91 -7 105 -63 126 -24 9 -27 8 -27 -9z"/>
<path d="M1160 522 c0 -4 6 -16 14 -27 7 -12 15 -61 19 -118 3 -55 8 -102 11
-105 17 -17 30 27 34 114 4 88 3 97 -19 120 -21 23 -59 33 -59 16z"/>
<path d="M95 508 c-77 -42 -48 -148 40 -148 44 0 95 45 95 83 0 42 -36 77 -78
77 -20 0 -46 -6 -57 -12z m84 -42 c16 -19 0 -52 -29 -61 -42 -13 -78 33 -48
63 17 17 63 15 77 -2z"/>
<path d="M790 507 c0 -7 5 -18 12 -25 9 -9 3 -21 -27 -53 -22 -22 -56 -50 -75
-62 -33 -20 -33 -22 -12 -25 12 -2 47 10 77 27 30 17 55 26 55 21 0 -14 87
-53 100 -45 6 3 10 14 10 24 0 13 -13 22 -45 31 -48 14 -54 20 -30 40 22 19
18 46 -10 64 -29 19 -55 21 -55 3z"/>
<path d="M2030 512 c0 -5 14 -21 30 -37 28 -27 30 -34 30 -101 l0 -72 -60 -4
-60 -3 0 31 c0 34 -38 84 -65 84 -19 0 -19 -9 1 -32 11 -12 17 -36 17 -73 l0
-55 83 0 84 0 0 -75 c0 -75 10 -93 30 -54 13 23 26 293 16 332 -9 37 -106 91
-106 59z"/>
<path d="M2330 512 c0 -5 9 -17 20 -27 17 -15 20 -31 20 -105 0 -100 0 -100
-86 -100 l-54 0 0 45 0 45 39 0 c34 0 51 12 51 36 0 2 -31 4 -70 4 l-70 0 0
-59 c0 -33 -3 -66 -6 -74 -3 -8 3 -22 12 -32 15 -14 28 -16 83 -10 36 3 74 9
84 12 17 5 19 -1 16 -76 -2 -44 0 -83 3 -86 14 -15 41 49 46 110 5 64 5 65 34
65 17 0 31 6 35 16 7 19 -13 34 -44 34 -22 0 -23 3 -23 90 0 89 0 90 -30 105
-32 17 -60 20 -60 7z"/>
<path d="M360 502 c0 -16 36 -42 58 -42 33 0 26 27 -9 39 -38 13 -49 14 -49 3z"/>
<path d="M1075 447 c6 -32 3 -38 -51 -85 -51 -46 -55 -52 -33 -52 13 0 37 9
53 19 29 19 30 19 54 0 24 -19 72 -26 72 -11 0 4 -14 19 -32 34 -29 24 -32 29
-20 47 17 28 15 45 -6 64 -30 28 -44 21 -37 -16z"/>
<path d="M1330 449 c-71 -14 -74 -16 -56 -41 12 -16 14 -36 9 -80 -6 -57 -6
-58 20 -58 54 0 167 24 167 36 0 26 -27 35 -71 25 -65 -15 -67 -15 -71 29 -4
43 -4 42 60 55 34 7 43 29 16 39 -9 3 -19 6 -22 5 -4 -1 -27 -5 -52 -10z"/>
<path d="M378 443 c-74 -4 -93 -12 -66 -29 12 -8 189 -6 197 2 8 8 -22 34 -38
32 -9 -1 -51 -4 -93 -5z"/>
<path d="M369 385 c-32 -17 -41 -38 -33 -71 12 -48 85 -60 122 -21 27 29 28
61 2 87 -23 23 -54 25 -91 5z m66 -50 c0 -23 -43 -34 -55 -14 -14 21 1 40 29
37 18 -2 26 -9 26 -23z"/>
<path d="M32 313 c-23 -3 -32 -9 -32 -23 0 -18 8 -19 140 -16 77 1 143 5 146
9 4 3 4 13 1 22 -5 12 -25 15 -114 13 -59 0 -123 -3 -141 -5z"/>
<path d="M1774 261 c9 -17 21 -31 26 -31 6 0 10 -22 10 -49 0 -47 -2 -50 -30
-56 -32 -7 -37 -17 -17 -32 27 -21 60 1 78 52 10 28 18 59 18 71 1 26 -35 60
-72 70 l-29 7 16 -32z"/>
<path d="M370 250 c0 -6 7 -13 15 -16 28 -11 17 -34 -17 -34 -27 -1 -96 -27
-78 -30 42 -6 214 0 222 8 17 17 -1 32 -38 32 -27 0 -34 4 -34 19 0 11 -9 21
-22 25 -34 9 -48 7 -48 -4z"/>
<path d="M1120 243 c-30 -8 -57 -17 -60 -19 -13 -13 30 -24 73 -18 l47 6 0
-71 c0 -39 4 -71 8 -71 15 0 32 48 39 107 5 48 3 58 -12 69 -22 16 -22 16 -95
-3z"/>
<path d="M50 232 c0 -5 9 -17 20 -27 14 -13 20 -31 20 -61 0 -57 19 -68 99
-55 122 20 139 58 24 53 l-71 -3 -6 35 c-4 20 -17 42 -29 51 -23 16 -57 20
-57 7z"/>
<path d="M1680 226 c0 -7 7 -19 15 -26 9 -7 15 -29 15 -51 0 -52 16 -57 41
-15 12 20 28 36 36 36 8 0 13 6 11 13 -3 6 -13 12 -23 12 -11 0 -29 10 -42 23
-25 25 -53 29 -53 8z"/>
<path d="M1405 208 c-48 -26 -60 -83 -25 -118 48 -48 143 -8 143 60 0 58 -62
89 -118 58z m74 -42 c9 -11 10 -20 1 -36 -13 -25 -57 -24 -73 2 -23 36 45 67
72 34z"/>
</g>
</svg>
