<?xml version="1.0" standalone="no"?>
<!DOCTYPE svg PUBLIC "-//W3C//DTD SVG 20010904//EN"
 "http://www.w3.org/TR/2001/REC-SVG-20010904/DTD/svg10.dtd">
<svg version="1.0" xmlns="http://www.w3.org/2000/svg"
 width="86.000000pt" height="31.000000pt" viewBox="0 0 86.000000 31.000000"
 preserveAspectRatio="xMidYMid meet">

<g transform="translate(0.000000,31.000000) scale(0.100000,-0.100000)"
fill="#000000" stroke="none">
<path d="M195 175 c-51 -56 -87 -70 -99 -39 -10 26 5 39 21 18 14 -19 15 -19
11 1 -4 24 -27 26 -41 3 -15 -23 8 -48 44 -48 23 0 36 10 64 49 46 63 89 77
125 41 27 -27 25 -56 -5 -76 -20 -13 -28 -14 -40 -4 -20 16 -19 40 1 40 10 0
14 -6 10 -15 -3 -8 -1 -15 4 -15 13 0 13 37 1 44 -17 11 -41 -6 -41 -30 0 -22
25 -44 49 -44 6 0 20 9 30 19 19 19 20 19 37 0 22 -24 66 -24 88 0 17 19 18
19 37 0 22 -22 32 -23 60 -9 35 19 19 76 -18 63 -15 -5 -18 -43 -3 -43 5 0 7
7 4 15 -4 9 0 15 10 15 20 0 21 -24 1 -40 -12 -10 -20 -9 -40 4 -30 20 -32 49
-5 76 36 36 79 22 125 -41 28 -39 41 -49 64 -49 36 0 59 25 44 48 -14 23 -37
21 -41 -3 -4 -20 -3 -20 11 -1 16 21 31 8 21 -18 -12 -31 -48 -17 -99 39 -57
61 -96 72 -130 35 l-18 -20 -22 20 c-27 25 -55 25 -87 0 -25 -19 -26 -19 -43
0 -33 37 -73 26 -130 -35z m246 35 c30 -17 26 -77 -6 -92 -38 -17 -75 3 -75
41 0 50 38 74 81 51z"/>
</g>
</svg>
